<?xml version="1.0" standalone="no"?>
<!DOCTYPE svg PUBLIC "-//W3C//DTD SVG 1.1//EN" "http://www.w3.org/Graphics/SVG/1.1/DTD/svg11.dtd" >
<svg xmlns="http://www.w3.org/2000/svg" xmlns:xlink="http://www.w3.org/1999/xlink" version="1.1">
<metadata>
Created by FontForge 20170731 at Wed Dec 30 21:41:58 2020
 By Aleksey,,,
Copyright (c) Lukas Bischoff, 2011. All rights reserved.
</metadata>
<defs>
<font id="DOCK11-Heavy" horiz-adv-x="653" >
  <font-face 
    font-family="DOCK11"
    font-weight="900"
    font-stretch="normal"
    units-per-em="2048"
    panose-1="0 0 0 0 0 0 0 0 0 0"
    ascent="1638"
    descent="-410"
    x-height="1012"
    cap-height="1421"
    bbox="-27 -297 1999 1671"
    underline-thickness="102"
    underline-position="-307"
    unicode-range="U+000D-2122"
  />
<missing-glyph 
 />
    <glyph glyph-name=".notdef" 
 />
    <glyph glyph-name=".null" horiz-adv-x="0" 
 />
    <glyph glyph-name=".null" horiz-adv-x="0" 
 />
    <glyph glyph-name="nonmarkingreturn" horiz-adv-x="682" 
 />
    <glyph glyph-name="CR" unicode="&#xd;" 
 />
    <glyph glyph-name="space" unicode=" " 
 />
    <glyph glyph-name="exclam" unicode="!" horiz-adv-x="622" 
d="M313 -59q94 0 161 66t67 159q0 94 -67 160.5t-161 66.5t-160.5 -66.5t-66.5 -160.5t66.5 -159.5t160.5 -65.5zM539 1421h-451l27 -970h395z" />
    <glyph glyph-name="quotedbl" unicode="&#x22;" horiz-adv-x="892" 
d="M494 1391l-218 77l-178 -319l217 -78zM805 1391l-217 77l-176 -319l217 -78z" />
    <glyph glyph-name="numbersign" unicode="#" horiz-adv-x="1474" 
d="M1386 846h-229l-24 -107h253v-317h-352l-78 -256h-342l78 256h-135l-78 -256h-340l76 256h-129v317h227l27 107h-254v315h352l76 258h342l-78 -258h135l78 258h342l-78 -258h131v-315zM791 739l28 107h-135l-29 -107h136z" />
    <glyph glyph-name="dollar" unicode="$" horiz-adv-x="1286" 
d="M862 866q-65 13 -143 27h-4v158q47 -4 134 -19.5t151 -29.5l63 -13l96 428q-284 52 -440 60h-4v147h-164v-154q-148 -19 -264 -106q-99 -74 -148.5 -160.5t-66.5 -210.5q-12 -83 11.5 -167.5t90 -154.5t164.5 -91q63 -17 190 -35q4 -1 11.5 -2t11.5 -2v-170q-37 4 -53 6
q-73 5 -148.5 16t-115.5 19l-39 8l-91 -422q250 -51 418 -57h29v-146h164v154q187 24 297 106q98 74 143 153t64 204q16 97 -18.5 190.5t-123 166.5t-215.5 97zM793 426q-8 -49 -78 -59v149q89 -24 78 -90zM477 1018q16 45 74 45v-135q-54 17 -69 36q-16 23 -5 54z" />
    <glyph glyph-name="ampersand" unicode="&#x26;" horiz-adv-x="1269" 
d="M1014 401q0 -9 9 -17.5t17 -8.5h177v-375h-177q-129 0 -233 66q-125 -82 -272 -82q-197 0 -338 141q-142 142 -142 336q0 204 148 352q-43 87 -43 195q0 192 135 327q141 138 330 138q132 0 243 -68.5t172 -185.5l-340 -175q-38 46 -79 46q-29 0 -50.5 -21.5t-21.5 -50.5
q0 -26 18.5 -46.5t44.5 -23.5v0h9h6h592l-31 -393h-174v-154zM651 440v115h-102q-40 0 -70 -26.5t-30 -67.5q0 -35 5 -54.5t25 -39.5q39 -27 70 -27q41 0 71.5 28t30.5 72z" />
    <glyph glyph-name="asterisk" unicode="*" horiz-adv-x="737" 
d="M686 1118l-170 -20l70 -158l-103 -61l-106 135l-92 -140l-109 58l64 162l-172 20v121l163 22l-65 152l104 61l103 -133l96 140l106 -58l-65 -159l176 -21v-121z" />
    <glyph glyph-name="plus" unicode="+" horiz-adv-x="927" 
d="M557 377v227h211v211h-211v209h-211v-209h-225v-211h225v-227h211z" />
    <glyph glyph-name="comma" unicode="," horiz-adv-x="557" 
d="M463 158q0 -31 -2 -37v-4l-121 -322l-203 76l47 129q-41 26 -65.5 67t-24.5 91q0 76 55 130t130 54q77 0 130.5 -54t53.5 -130z" />
    <glyph glyph-name="hyphen" unicode="-" horiz-adv-x="894" 
d="M115 604h647v199h-647v-199z" />
    <glyph glyph-name="period" unicode="." horiz-adv-x="548" 
d="M283 -2q76 0 130 53t54 129q0 75 -54.5 130t-129.5 55q-76 0 -130.5 -55t-54.5 -130q0 -76 54 -129t131 -53z" />
    <glyph glyph-name="slash" unicode="/" horiz-adv-x="925" 
d="M244 -297l678 1968h-242l-676 -1968h240z" />
    <glyph glyph-name="zero" unicode="0" horiz-adv-x="1337" 
d="M1118 1300q178 -178 178 -434v-309q0 -257 -178 -432q-180 -180 -434 -180q-250 0 -430 180q-180 177 -180 432v309q0 254 180 434q179 179 432 179t432 -179zM854 557v309q0 70 -49.5 120t-118.5 50q-70 0 -119 -49.5t-49 -120.5v-309q0 -70 48.5 -119t117.5 -49
q71 0 120.5 49t49.5 119z" />
    <glyph glyph-name="one" unicode="1" horiz-adv-x="909" 
d="M100 1421h725v-1421h-424v997h-272z" />
    <glyph glyph-name="two" unicode="2" horiz-adv-x="1277" 
d="M788 412h404v-412h-1081l2 362q565 451 573 461q3 3 10.5 9.5t10 9l8 8t8.5 9t7.5 10t8.5 13t9 15.5q2 8 2 21q0 46 -32 78t-81 32q-42 0 -73.5 -27.5t-35.5 -68.5l-434 92q29 160 154 285q161 161 389 161q262 0 407 -157q151 -164 148 -402q0 -68 -25 -133
q-44 -114 -137 -186z" />
    <glyph glyph-name="three" unicode="3" horiz-adv-x="1165" 
d="M1122 1419l-256 -499q106 -57 177 -167t71 -259q0 -113 -44 -216t-118 -177t-177 -118t-216 -44q-203 0 -356 130t-189 326l373 94q28 -56 74 -90t98 -34q53 0 88 36.5t41 92.5q5 34 -8.5 77.5t-54.5 59.5l-242 92l221 315l-495 11l-19 370h1032z" />
    <glyph glyph-name="four" unicode="4" horiz-adv-x="1271" 
d="M762 942h424v-942h-424v340h-694v399v0v0l313 682h467l-313 -682h227v203z" />
    <glyph glyph-name="five" unicode="5" horiz-adv-x="1107" 
d="M1073 471q0 -87 -28.5 -172t-82 -160t-142 -129t-197.5 -71q-133 -20 -258 21t-217 132t-134 215l373 150q77 -107 184 -92q52 7 79.5 43t19.5 81q-7 47 -41 70t-125 23h-434l45 837h860l-14 -352h-457l-10 -139q182 0 272 -19t156 -75q151 -128 151 -363z" />
    <glyph glyph-name="six" unicode="6" horiz-adv-x="1214" 
d="M723 1036q190 -39 316 -191.5t126 -350.5q0 -113 -44 -216t-118 -177t-177 -118t-216 -44q-112 0 -214.5 44t-176.5 118t-118 177t-44 216q0 153 74 301l299 624l467 2zM610 365q54 0 91.5 37.5t37.5 91.5q0 53 -37.5 90t-91.5 37q-60 0 -96 -46l-7 -8q-7 -8 -15.5 -28.5
t-8.5 -44.5q0 -54 37 -91.5t90 -37.5z" />
    <glyph glyph-name="seven" unicode="7" horiz-adv-x="1077" 
d="M-4 1419l1089 2l-483 -1421h-450l337 999h-464z" />
    <glyph glyph-name="eight" unicode="8" horiz-adv-x="1110" 
d="M961 115q165 156 165 401q0 112 -40.5 214t-112.5 177q20 75 20 142q0 182 -131 313q-123 129 -307 129q-177 0 -309 -129q-131 -134 -131 -313q0 -77 26 -142q-75 -75 -117 -177t-42 -214q0 -236 168 -401q165 -168 405 -168q244 0 406 168zM555 621q43 0 74 -31
q26 -23 26 -55q4 -6 4 -17q0 -42 -30 -75t-74 -33q-38 0 -71 33t-33 73q0 44 32.5 74.5t71.5 30.5zM555 1122q32 0 53 -18q21 -27 21 -53q0 -30 -20.5 -54t-53.5 -24q-29 0 -51.5 24t-22.5 52q0 32 22.5 52.5t51.5 20.5z" />
    <glyph glyph-name="nine" unicode="9" horiz-adv-x="1198" 
d="M1159 920q0 -101 -37 -199v0q-11 -31 -28 -62l-301 -659h-469l172 375q-192 39 -319.5 192.5t-127.5 352.5q0 112 44 214.5t118.5 176.5t177.5 118t215 44t215 -44t177.5 -118t118.5 -176.5t44 -214.5zM604 791q54 0 91.5 37.5t37.5 91.5q0 53 -37.5 90t-91.5 37
t-91.5 -37t-37.5 -90q0 -54 37.5 -91.5t91.5 -37.5z" />
    <glyph glyph-name="colon" unicode=":" horiz-adv-x="595" 
d="M293 840q77 0 130.5 53t53.5 129q0 75 -54 129.5t-130 54.5q-75 0 -129.5 -54.5t-54.5 -129.5q0 -76 54 -129t130 -53zM309 324q76 0 130.5 53t54.5 129q0 75 -55 129.5t-130 54.5q-76 0 -130 -54.5t-54 -129.5q0 -76 53.5 -129t130.5 -53z" />
    <glyph glyph-name="semicolon" unicode=";" horiz-adv-x="557" 
d="M463 158q0 -31 -2 -37v-4l-121 -322l-203 76l47 129q-41 26 -65.5 67t-24.5 91q0 76 55 130t130 54q77 0 130.5 -54t53.5 -130zM279 514q77 0 130.5 53t53.5 129q0 75 -54 130t-130 55q-75 0 -130 -55t-55 -130q0 -76 54.5 -129t130.5 -53z" />
    <glyph glyph-name="less" unicode="&#x3c;" horiz-adv-x="995" 
d="M651 66l-549 548l549 549l226 -225l-322 -324l322 -323z" />
    <glyph glyph-name="equal" unicode="=" horiz-adv-x="880" 
d="M115 395h647v213h-647v-213zM115 705h647v213h-647v-213z" />
    <glyph glyph-name="greater" unicode="&#x3e;" horiz-adv-x="940" 
d="M838 618l4 -6l-549 -549l-227 228l323 321l-323 324l227 225z" />
    <glyph glyph-name="question" unicode="?" horiz-adv-x="1024" 
d="M535 -76q93 0 159 66t66 160t-66.5 160.5t-158.5 66.5q-94 0 -161 -66.5t-67 -160.5t67 -160t161 -66zM672 1438q90 -35 158.5 -101t103.5 -148t40.5 -176.5t-30.5 -185.5q-25 -65 -67 -110t-144 -96l-14 -170h-379l-21 399l127 -2q81 0 119 33q22 19 29.5 32.5
t13.5 44.5q11 45 -6.5 85t-58.5 57q-43 15 -84 -3t-58 -61q0 -1 -1 -2t-1 -2l-338 133q2 0 2 2q34 89 100 157.5t148.5 104t176.5 41t184 -31.5z" />
    <glyph glyph-name="at" unicode="@" horiz-adv-x="1261" 
d="M106 324h1053v223h-1053v-223zM1171 1040v189h-505v-189h159v-419h189v419h157zM557 623l-27 77h-194l-27 -79l-200 2l208 602v4h2h3h221h2l211 -606h-199zM389 856h86l-43 123z" />
    <glyph glyph-name="A" unicode="A" horiz-adv-x="1513" 
d="M1049 0l-66 186h-453l-65 -188l-467 2l494 1421h528l493 -1421h-464zM655 549h201l-100 289z" />
    <glyph glyph-name="B" unicode="B" horiz-adv-x="1359" 
d="M1214 756q129 -129 129 -307q0 -91 -33.5 -173.5t-95.5 -142.5q-130 -133 -372 -133h-758v1419l645 2q134 0 212 -30.5t146 -98.5q107 -110 107 -301q0 -69 -18.5 -118.5t-45.5 -73.5q46 -5 84 -43zM729 1094h-217v-207h201q57 0 88 31q30 30 30 73t-29.5 73t-72.5 30z
M915 371q33 33 33 78q0 44 -31.5 75t-74.5 31h-330v-217h303q67 0 100 33z" />
    <glyph glyph-name="C" unicode="C" horiz-adv-x="1343" 
d="M1305 106l45 46l-277 329l-6 -6q-78 -78 -252 -78q-155 0 -240 88q-81 78 -81 222q0 134 94 225q91 94 227 94q133 0 227 -94q1 -1 2.5 -2t2.5 -2l247 372q-86 66 -211 118t-268 52q-316 0 -539 -223t-223 -540q0 -316 223 -539t539 -223q169 0 268.5 30.5t221.5 130.5z
" />
    <glyph glyph-name="D" unicode="D" horiz-adv-x="1423" 
d="M1165 207q209 212 209 506q0 292 -209 501q-212 209 -501 209h-582v-1423h582q291 0 501 207zM934 709q0 -112 -80 -189q-30 -30 -66 -48t-71 -24t-74 -8t-76 0h-45v541h142q122 0 194 -84q76 -82 76 -188z" />
    <glyph glyph-name="E" unicode="E" horiz-adv-x="1183" 
d="M1110 1032h-584v-133h574v-356h-574v-142h586v-401h-1028v1421h1026v-389z" />
    <glyph glyph-name="F" unicode="F" horiz-adv-x="1189" 
d="M1114 1028h-588v-160h582v-356h-582v-512h-440v1421h1028v-393z" />
    <glyph glyph-name="G" unicode="G" horiz-adv-x="1583" 
d="M1548 811v-86v-18q0 -328 -211 -539q-228 -223 -538 -223q-311 0 -539 223q-223 223 -223 539q0 319 223 538q225 225 539 225q313 0 538 -225l-327 -299q-44 44 -93.5 62t-117.5 18q-134 0 -228 -94q-92 -92 -92 -225t92 -228q95 -92 228 -92t225 92q27 27 43 51h-246
v281h727z" />
    <glyph glyph-name="H" unicode="H" horiz-adv-x="1447" 
d="M1366 0v1421h-442v-487h-396v487h-444v-1421h444v492h396v-492h442z" />
    <glyph glyph-name="I" unicode="I" horiz-adv-x="608" 
d="M524 0v1421h-442v-1421h442z" />
    <glyph glyph-name="J" unicode="J" horiz-adv-x="839" 
d="M768 608v811h-442v-811q0 -125 -84 -209q-83 -86 -205 -86v-440q303 0 518 215q213 216 213 520z" />
    <glyph glyph-name="K" unicode="K" horiz-adv-x="1439" 
d="M1122 -264l351 264l-547 723l436 438l-311 314l-519 -521v465h-442v-1419h442v492z" />
    <glyph glyph-name="L" unicode="L" horiz-adv-x="1015" 
d="M977 0v442h-453v979h-440v-1421h893z" />
    <glyph glyph-name="M" unicode="M" horiz-adv-x="1622" 
d="M1130 1421h441v-1421h-441v688l-301 -399l-307 405v-694h-440v1421h440v-2h2l303 -397l303 395v4z" />
    <glyph glyph-name="N" unicode="N" horiz-adv-x="1505" 
d="M1419 1421v-1421h-436l-4 -2l-457 657v-655h-440v1419l440 2l455 -647v647h442z" />
    <glyph glyph-name="O" unicode="O" horiz-adv-x="1579" 
d="M1329 168q225 225 225 539q0 317 -225 538q-225 225 -538 225q-314 0 -539 -225q-223 -223 -223 -538q0 -311 223 -539q228 -223 539 -223q310 0 538 223zM1016 932q96 -89 96 -225t-96 -228q-95 -92 -225 -92q-133 0 -228 92q-92 95 -92 228t92 225q94 94 228 94
q131 0 225 -94z" />
    <glyph glyph-name="P" unicode="P" horiz-adv-x="1441" 
d="M1223 383q178 178 178 432t-178 432q-174 174 -435 174h-702v-1421h444v205h258q257 0 435 178zM788 983q70 0 119 -48.5t49 -119.5q0 -70 -49 -120t-119 -50h-258v338h258z" />
    <glyph glyph-name="Q" unicode="Q" horiz-adv-x="1560" 
d="M1552 711q0 -314 -225 -539q-157 -157 -356 -203v-174h-363v174q-202 47 -358 203q-223 228 -223 539q0 315 223 538q226 226 541 226t536 -226q225 -221 225 -538zM1014 483q96 92 96 228t-96 225q-91 94 -223 94q-137 0 -228 -94q-94 -91 -94 -225t94 -228
q24 -24 45 -37v177h363v-177q42 36 43 37z" />
    <glyph glyph-name="R" unicode="R" horiz-adv-x="1546" 
d="M1587 2l-354 -266l-356 473q-87 -6 -91 -6h-260v-203h-444v1421h704q265 0 435 -170q180 -180 180 -434q0 -219 -137 -385zM526 647h260q70 0 119 50t49 120q0 69 -49 118.5t-119 49.5h-260v-338z" />
    <glyph glyph-name="S" unicode="S" horiz-adv-x="1261" 
d="M854 870q-63 11 -141 25q-63 9 -104 16.5t-51 10.5l-9 4q-23 9 -37 32t-6 54q11 40 54 45.5t140 -4.5q46 -4 134.5 -13.5t153.5 -17.5l65 -8l92 409q-284 50 -438 58q-140 5 -249 -15t-198 -90q-93 -71 -136.5 -162t-62.5 -225q-10 -83 14.5 -166.5t92 -153t166.5 -89.5
q61 -15 188 -33l133 -19q40 -5 66 -17t33 -26t10 -29t-2 -26q-3 -16 -10.5 -27.5t-21 -18t-25 -10t-32 -4t-33 0t-36.5 2t-35 2.5q-72 4 -167 15t-154 20l-58 8l-86 -424q252 -49 420 -53q57 -3 125.5 -1t130.5 7.5t125.5 27t110.5 56.5q92 73 136.5 164t64.5 223
q14 100 -21.5 193t-124.5 164.5t-217 94.5z" />
    <glyph glyph-name="T" unicode="T" horiz-adv-x="1236" 
d="M1208 985v436h-1181v-436h370v-985h441v985h370z" />
    <glyph glyph-name="U" unicode="U" horiz-adv-x="1388" 
d="M862 1419h443v-864q0 -256 -179 -432q-180 -180 -434 -180q-249 0 -432 180q-178 175 -178 432v864h442v-864q0 -70 49.5 -119t118.5 -49q71 0 120.5 49t49.5 119v864z" />
    <glyph glyph-name="V" unicode="V" horiz-adv-x="1552" 
d="M1024 0h-500l-532 1419h471l311 -827l313 827h472z" />
    <glyph glyph-name="W" unicode="W" horiz-adv-x="2000" 
d="M745 0h-450l-293 1419h451l174 -841l372 546l373 -546l176 841h451l-295 -1419h-451l2 4l-2 -2l-252 387l-253 -387l-3 2v-4z" />
    <glyph glyph-name="X" unicode="X" horiz-adv-x="1495" 
d="M-27 0l510 735l-479 686h537l211 -299l211 299h538l-479 -686l508 -735h-537l-241 348l-240 -348h-539z" />
    <glyph glyph-name="Y" unicode="Y" horiz-adv-x="1458" 
d="M1458 1421h-510l-219 -372l-219 372h-510l508 -878v-543h442v543z" />
    <glyph glyph-name="Z" unicode="Z" horiz-adv-x="1333" 
d="M766 444l567 977h-1280v-440h510l-565 -981h1278v444h-510z" />
    <glyph glyph-name="bracketleft" unicode="[" horiz-adv-x="483" 
d="M414 1430h-135v-1448h135v-215h-371v1878h371v-215z" />
    <glyph glyph-name="bracketright" unicode="]" horiz-adv-x="481" 
d="M70 -18h135v1448h-135v215h370v-1878h-370v215z" />
    <glyph glyph-name="underscore" unicode="_" horiz-adv-x="1024" 
d="M39 0h934v190h-934v-190z" />
    <glyph glyph-name="a" unicode="a" horiz-adv-x="1286" 
d="M1200 1253h-248v-67h248v-154h-248v-215h-186v602h434v-166zM623 891q94 94 94 227q0 134 -94 228t-228 94q-133 0 -227 -94t-94 -228q0 -133 94 -227t227 -94q134 0 228 94zM489 1212q41 -35 41 -94q0 -58 -41 -96q-36 -39 -94 -39q-57 0 -96 39t-39 96q0 58 39 94
q41 41 96 41q56 0 94 -41zM84 518h1114v225h-1114v-225z" />
    <glyph glyph-name="b" unicode="b" horiz-adv-x="1333" 
d="M1151 891q94 94 94 227q0 134 -94 228t-227 94q-134 0 -228 -94t-94 -228q0 -133 94 -227t228 -94q133 0 227 94zM1018 1212q41 -35 41 -94q0 -58 -41 -96q-39 -39 -94 -39q-58 0 -97 39t-39 96q0 58 39 94q41 41 97 41q53 0 94 -41zM582 1233v186h-500v-186h158v-416
h186v416h156zM82 520h1167v223h-1167v-223z" />
    <glyph glyph-name="c" unicode="c" horiz-adv-x="1200" 
d="M82 516h1071v223h-1071v-223zM559 1139q55 -55 55 -133q0 -79 -55 -134t-158 -55h-282h-37v602h272q57 0 90.5 -12.5t61.5 -40.5q51 -51 51 -127q0 -45 -18 -82q13 -9 20 -18zM354 1282h-86v-88h80q21 0 37 12q12 15 12 33t-12.5 30.5t-30.5 12.5zM434 973q12 16 12 33
q0 19 -13 32t-32 13h-133v-90h123q31 0 43 12zM1165 1419h-217l-92 -159l-92 159h-215l215 -372v-230h186v230z" />
    <glyph glyph-name="d" unicode="d" horiz-adv-x="1335" 
d="M82 518h1055v225h-1055v-225zM649 1419v-602h-184l-2 -2l-193 279v-277h-186v602l186 2l193 -278v276h186zM1331 842l-149 -113l-133 176q-12 -2 -37 -2h-111v-86h-186v602h297q109 0 182 -73q76 -76 76 -185q0 -95 -58 -162zM901 1090h111q29 0 50 21t21 50t-21 50.5
t-50 21.5h-111v-143z" />
    <glyph glyph-name="e" unicode="e" horiz-adv-x="1912" 
d="M82 522h1747v226h-1747v-226zM1755 907q88 91 88 213t-88 213q-88 88 -213 88h-246v-602h246q122 0 213 88zM1657 1120q0 -44 -33 -80q-17 -16 -40.5 -24t-38 -9t-44.5 -1h-18v229h59q54 0 84 -37q31 -36 31 -78zM418 1421h186v-364q0 -110 -76 -183q-72 -75 -182 -75
q-107 0 -182 75q-76 76 -76 183v364h186v-364q0 -29 21.5 -50.5t50.5 -21.5t50.5 21.5t21.5 50.5v364zM1235 1421v-602h-184l-2 -2l-193 277v-277h-186v604h186l193 -276v276h186z" />
    <glyph glyph-name="f" unicode="f" horiz-adv-x="1998" 
d="M522 813l-28 78h-193l-29 -80l-198 2l213 606h221h2l211 -606h-199zM354 1047h86l-43 122zM78 520h1798v223h-1798v-223zM1810 905q91 91 91 213q0 120 -91 211q-87 90 -211 90h-245v-602h245q126 0 211 88zM1714 1116q0 -44 -33 -80q-25 -23 -52.5 -28.5t-69.5 -3.5h-19
v227h59q54 0 82 -35q33 -36 33 -80zM1292 1417v-602h-186l-193 277v-279h-186v604l186 2l193 -278v276h186z" />
    <glyph glyph-name="g" unicode="g" horiz-adv-x="772" 
d="M612 891q95 95 95 227q0 133 -95 228q-94 94 -227 94t-227 -94q-95 -95 -95 -228q0 -132 95 -227q94 -94 227 -94t227 94zM479 1212q41 -35 41 -94q0 -58 -41 -96q-39 -39 -94 -39q-57 0 -96 39t-39 96q0 58 39 94q41 41 96 41q53 0 94 -41zM78 520h614v223h-614v-223z
" />
    <glyph glyph-name="x" unicode="x" horiz-adv-x="972" 
d="M891 434l-232 -231l-172 174l-174 -174l-231 231l174 174l-174 174l231 230l174 -172l172 172l232 -230l-174 -174z" />
    <glyph glyph-name="bar" unicode="|" horiz-adv-x="389" 
d="M297 -225v1894h-207v-1894h207z" />
    <glyph glyph-name="degree" unicode="&#xb0;" horiz-adv-x="741" 
d="M584 954q90 90 90 215q0 126 -90 213q-88 91 -215 91t-215 -91q-88 -85 -88 -213q0 -127 88 -215t215 -88t215 88zM459 1260q39 -36 39 -91q0 -54 -39 -90q-39 -39 -90 -39t-90 39q-37 37 -37 90q0 54 37 91q36 36 90 36t90 -36z" />
    <glyph glyph-name="periodcentered" unicode="&#xb7;" horiz-adv-x="741" 
d="M612 455v485h-485v-485h485z" />
    <glyph glyph-name="Adieresis" unicode="&#xc4;" horiz-adv-x="1513" 
d="M1049 0l-66 186h-453l-65 -188l-467 2l494 1421h528l493 -1421h-464zM655 549h201l-100 289zM262 1292q77 0 130.5 53.5t53.5 129.5q0 75 -54 129.5t-130 54.5q-75 0 -129.5 -54.5t-54.5 -129.5q0 -76 54.5 -129.5t129.5 -53.5zM1251 1288q77 0 131 53t54 129
q0 75 -54.5 130t-130.5 55q-75 0 -129.5 -55t-54.5 -130q0 -76 54 -129t130 -53z" />
    <glyph glyph-name="Odieresis" unicode="&#xd6;" horiz-adv-x="1603" 
d="M197 1292q77 0 130.5 53.5t53.5 129.5q0 75 -54 129.5t-130 54.5q-75 0 -130 -54.5t-55 -129.5q0 -76 54.5 -129.5t130.5 -53.5zM1333 168q226 226 226 539q0 317 -226 538q-225 225 -538 225q-314 0 -539 -225q-223 -223 -223 -538q0 -311 223 -539q228 -223 539 -223
q310 0 538 223zM1020 932q96 -89 96 -225t-96 -228q-95 -92 -225 -92q-133 0 -228 92q-92 95 -92 228t92 225q94 94 228 94q131 0 225 -94zM1403 1288q77 0 130.5 53t53.5 129q0 75 -54 130t-130 55q-75 0 -129.5 -55t-54.5 -130q0 -76 54 -129t130 -53z" />
    <glyph glyph-name="Udieresis" unicode="&#xdc;" horiz-adv-x="1404" 
d="M862 1241h443v-686q0 -256 -179 -432q-180 -180 -434 -180q-249 0 -432 180q-178 175 -178 432v686h442v-686q0 -70 49.5 -119t118.5 -49q71 0 120.5 49t49.5 119v686zM299 1292q77 0 130.5 53.5t53.5 129.5q0 75 -54 129.5t-130 54.5q-75 0 -129.5 -54.5t-54.5 -129.5
q0 -76 54.5 -129.5t129.5 -53.5zM1077 1288q77 0 131 53t54 129q0 75 -54.5 130t-130.5 55q-75 0 -129.5 -55t-54.5 -130q0 -76 54 -129t130 -53z" />
    <glyph glyph-name="quotedblbase" unicode="&#x201e;" horiz-adv-x="849" 
d="M604 313l-217 -77l178 -320l217 78zM293 313l-217 -77l176 -320l217 78z" />
    <glyph glyph-name="bullet" unicode="&#x2022;" horiz-adv-x="700" 
d="M614 322v526h-526v-526h526z" />
    <glyph glyph-name="Euro" unicode="&#x20ac;" horiz-adv-x="1417" 
d="M1380 106l45 46l-276 329l-6 -6q-78 -78 -252 -78q-155 0 -240 88q-16 16 -28 31h176l18 166h-248v25v24h252l21 166h-211q4 5 11.5 17.5t14.5 19.5q89 92 234 92q133 0 227 -94l4 -4l248 372q-86 66 -211 118t-268 52q-316 0 -539 -223q-152 -152 -202 -350h-142v-166
h121v-24v-25h-121v-166h144q46 -194 200 -348q223 -223 539 -223q168 0 267.5 30.5t221.5 130.5z" />
    <glyph glyph-name="trademark" unicode="&#x2122;" horiz-adv-x="475" 
d="M356 1421h64v-202h-64v98l-43 -57l-43 57v-98h-63v139h-51v-139h-64v139h-51v63h229v0l43 -57z" />
    </font>
</defs>
</svg>
